# xmcd CD database file
#
# Track frame offsets:
#	150
#	51910
#	163202
#	244245
#
# Disc length: 3806 seconds
#
# Revision: 0
# Processed by: cddbd v1.4PL0 Copyright (c) Steve Scherf et al.
# Submitted via: CDex 1.50Beta7
#
DISCID=330edc04
DTITLE=Earl Harvin Trio - At The Gypsy Tea Room [CD2]
DYEAR=1999
DGENRE=Jazz
TTITLE0=Eat Me
TTITLE1=What I Want To Do To You
TTITLE2=The Alien
TTITLE3=Fyr (Reprise)
EXTD=YEAR: 1999
EXTT0=
EXTT1=
EXTT2=
EXTT3=
PLAYORDER=
